<svg width="222" height="222" viewBox="0 0 222 222" fill="none" xmlns="http://www.w3.org/2000/svg">
<g clip-path="url(#clip0_37_4884)">
<path d="M222 0H0V222H222V0Z" fill="white"/>
<path d="M18 12H12V18H18V12Z" fill="black"/>
<path d="M24 12H18V18H24V12Z" fill="black"/>
<path d="M30 12H24V18H30V12Z" fill="black"/>
<path d="M36 12H30V18H36V12Z" fill="black"/>
<path d="M42 12H36V18H42V12Z" fill="black"/>
<path d="M48 12H42V18H48V12Z" fill="black"/>
<path d="M54 12H48V18H54V12Z" fill="black"/>
<path d="M72 12H66V18H72V12Z" fill="black"/>
<path d="M114 12H108V18H114V12Z" fill="black"/>
<path d="M132 12H126V18H132V12Z" fill="black"/>
<path d="M138 12H132V18H138V12Z" fill="black"/>
<path d="M144 12H138V18H144V12Z" fill="black"/>
<path d="M150 12H144V18H150V12Z" fill="black"/>
<path d="M156 12H150V18H156V12Z" fill="black"/>
<path d="M174 12H168V18H174V12Z" fill="black"/>
<path d="M180 12H174V18H180V12Z" fill="black"/>
<path d="M186 12H180V18H186V12Z" fill="black"/>
<path d="M192 12H186V18H192V12Z" fill="black"/>
<path d="M198 12H192V18H198V12Z" fill="black"/>
<path d="M204 12H198V18H204V12Z" fill="black"/>
<path d="M210 12H204V18H210V12Z" fill="black"/>
<path d="M18 18H12V24H18V18Z" fill="black"/>
<path d="M54 18H48V24H54V18Z" fill="black"/>
<path d="M66 18H60V24H66V18Z" fill="black"/>
<path d="M72 18H66V24H72V18Z" fill="black"/>
<path d="M84 18H78V24H84V18Z" fill="black"/>
<path d="M90 18H84V24H90V18Z" fill="black"/>
<path d="M102 18H96V24H102V18Z" fill="black"/>
<path d="M108 18H102V24H108V18Z" fill="black"/>
<path d="M120 18H114V24H120V18Z" fill="black"/>
<path d="M126 18H120V24H126V18Z" fill="black"/>
<path d="M138 18H132V24H138V18Z" fill="black"/>
<path d="M144 18H138V24H144V18Z" fill="black"/>
<path d="M150 18H144V24H150V18Z" fill="black"/>
<path d="M162 18H156V24H162V18Z" fill="black"/>
<path d="M174 18H168V24H174V18Z" fill="black"/>
<path d="M210 18H204V24H210V18Z" fill="black"/>
<path d="M18 24H12V30H18V24Z" fill="black"/>
<path d="M30 24H24V30H30V24Z" fill="black"/>
<path d="M36 24H30V30H36V24Z" fill="black"/>
<path d="M42 24H36V30H42V24Z" fill="black"/>
<path d="M54 24H48V30H54V24Z" fill="black"/>
<path d="M72 24H66V30H72V24Z" fill="black"/>
<path d="M78 24H72V30H78V24Z" fill="black"/>
<path d="M84 24H78V30H84V24Z" fill="black"/>
<path d="M102 24H96V30H102V24Z" fill="black"/>
<path d="M114 24H108V30H114V24Z" fill="black"/>
<path d="M126 24H120V30H126V24Z" fill="black"/>
<path d="M138 24H132V30H138V24Z" fill="black"/>
<path d="M144 24H138V30H144V24Z" fill="black"/>
<path d="M156 24H150V30H156V24Z" fill="black"/>
<path d="M174 24H168V30H174V24Z" fill="black"/>
<path d="M186 24H180V30H186V24Z" fill="black"/>
<path d="M192 24H186V30H192V24Z" fill="black"/>
<path d="M198 24H192V30H198V24Z" fill="black"/>
<path d="M210 24H204V30H210V24Z" fill="black"/>
<path d="M18 30H12V36H18V30Z" fill="black"/>
<path d="M30 30H24V36H30V30Z" fill="black"/>
<path d="M36 30H30V36H36V30Z" fill="black"/>
<path d="M42 30H36V36H42V30Z" fill="black"/>
<path d="M54 30H48V36H54V30Z" fill="black"/>
<path d="M66 30H60V36H66V30Z" fill="black"/>
<path d="M72 30H66V36H72V30Z" fill="black"/>
<path d="M84 30H78V36H84V30Z" fill="black"/>
<path d="M96 30H90V36H96V30Z" fill="black"/>
<path d="M108 30H102V36H108V30Z" fill="black"/>
<path d="M120 30H114V36H120V30Z" fill="black"/>
<path d="M150 30H144V36H150V30Z" fill="black"/>
<path d="M156 30H150V36H156V30Z" fill="black"/>
<path d="M162 30H156V36H162V30Z" fill="black"/>
<path d="M174 30H168V36H174V30Z" fill="black"/>
<path d="M186 30H180V36H186V30Z" fill="black"/>
<path d="M192 30H186V36H192V30Z" fill="black"/>
<path d="M198 30H192V36H198V30Z" fill="black"/>
<path d="M210 30H204V36H210V30Z" fill="black"/>
<path d="M18 36H12V42H18V36Z" fill="black"/>
<path d="M30 36H24V42H30V36Z" fill="black"/>
<path d="M36 36H30V42H36V36Z" fill="black"/>
<path d="M42 36H36V42H42V36Z" fill="black"/>
<path d="M54 36H48V42H54V36Z" fill="black"/>
<path d="M78 36H72V42H78V36Z" fill="black"/>
<path d="M90 36H84V42H90V36Z" fill="black"/>
<path d="M96 36H90V42H96V36Z" fill="black"/>
<path d="M114 36H108V42H114V36Z" fill="black"/>
<path d="M132 36H126V42H132V36Z" fill="black"/>
<path d="M138 36H132V42H138V36Z" fill="black"/>
<path d="M144 36H138V42H144V36Z" fill="black"/>
<path d="M150 36H144V42H150V36Z" fill="black"/>
<path d="M156 36H150V42H156V36Z" fill="black"/>
<path d="M162 36H156V42H162V36Z" fill="black"/>
<path d="M174 36H168V42H174V36Z" fill="black"/>
<path d="M186 36H180V42H186V36Z" fill="black"/>
<path d="M192 36H186V42H192V36Z" fill="black"/>
<path d="M198 36H192V42H198V36Z" fill="black"/>
<path d="M210 36H204V42H210V36Z" fill="black"/>
<path d="M18 42H12V48H18V42Z" fill="black"/>
<path d="M54 42H48V48H54V42Z" fill="black"/>
<path d="M66 42H60V48H66V42Z" fill="black"/>
<path d="M78 42H72V48H78V42Z" fill="black"/>
<path d="M102 42H96V48H102V42Z" fill="black"/>
<path d="M108 42H102V48H108V42Z" fill="black"/>
<path d="M114 42H108V48H114V42Z" fill="black"/>
<path d="M120 42H114V48H120V42Z" fill="black"/>
<path d="M138 42H132V48H138V42Z" fill="black"/>
<path d="M150 42H144V48H150V42Z" fill="black"/>
<path d="M174 42H168V48H174V42Z" fill="black"/>
<path d="M210 42H204V48H210V42Z" fill="black"/>
<path d="M18 48H12V54H18V48Z" fill="black"/>
<path d="M24 48H18V54H24V48Z" fill="black"/>
<path d="M30 48H24V54H30V48Z" fill="black"/>
<path d="M36 48H30V54H36V48Z" fill="black"/>
<path d="M42 48H36V54H42V48Z" fill="black"/>
<path d="M48 48H42V54H48V48Z" fill="black"/>
<path d="M54 48H48V54H54V48Z" fill="black"/>
<path d="M66 48H60V54H66V48Z" fill="black"/>
<path d="M78 48H72V54H78V48Z" fill="black"/>
<path d="M90 48H84V54H90V48Z" fill="black"/>
<path d="M102 48H96V54H102V48Z" fill="black"/>
<path d="M114 48H108V54H114V48Z" fill="black"/>
<path d="M126 48H120V54H126V48Z" fill="black"/>
<path d="M138 48H132V54H138V48Z" fill="black"/>
<path d="M150 48H144V54H150V48Z" fill="black"/>
<path d="M162 48H156V54H162V48Z" fill="black"/>
<path d="M174 48H168V54H174V48Z" fill="black"/>
<path d="M180 48H174V54H180V48Z" fill="black"/>
<path d="M186 48H180V54H186V48Z" fill="black"/>
<path d="M192 48H186V54H192V48Z" fill="black"/>
<path d="M198 48H192V54H198V48Z" fill="black"/>
<path d="M204 48H198V54H204V48Z" fill="black"/>
<path d="M210 48H204V54H210V48Z" fill="black"/>
<path d="M90 54H84V60H90V54Z" fill="black"/>
<path d="M102 54H96V60H102V54Z" fill="black"/>
<path d="M108 54H102V60H108V54Z" fill="black"/>
<path d="M126 54H120V60H126V54Z" fill="black"/>
<path d="M132 54H126V60H132V54Z" fill="black"/>
<path d="M144 54H138V60H144V54Z" fill="black"/>
<path d="M150 54H144V60H150V54Z" fill="black"/>
<path d="M18 60H12V66H18V60Z" fill="black"/>
<path d="M24 60H18V66H24V60Z" fill="black"/>
<path d="M30 60H24V66H30V60Z" fill="black"/>
<path d="M36 60H30V66H36V60Z" fill="black"/>
<path d="M42 60H36V66H42V60Z" fill="black"/>
<path d="M54 60H48V66H54V60Z" fill="black"/>
<path d="M60 60H54V66H60V60Z" fill="black"/>
<path d="M66 60H60V66H66V60Z" fill="black"/>
<path d="M72 60H66V66H72V60Z" fill="black"/>
<path d="M78 60H72V66H78V60Z" fill="black"/>
<path d="M90 60H84V66H90V60Z" fill="black"/>
<path d="M96 60H90V66H96V60Z" fill="black"/>
<path d="M102 60H96V66H102V60Z" fill="black"/>
<path d="M120 60H114V66H120V60Z" fill="black"/>
<path d="M138 60H132V66H138V60Z" fill="black"/>
<path d="M156 60H150V66H156V60Z" fill="black"/>
<path d="M162 60H156V66H162V60Z" fill="black"/>
<path d="M168 60H162V66H168V60Z" fill="black"/>
<path d="M180 60H174V66H180V60Z" fill="black"/>
<path d="M192 60H186V66H192V60Z" fill="black"/>
<path d="M204 60H198V66H204V60Z" fill="black"/>
<path d="M36 66H30V72H36V66Z" fill="black"/>
<path d="M48 66H42V72H48V66Z" fill="black"/>
<path d="M72 66H66V72H72V66Z" fill="black"/>
<path d="M114 66H108V72H114V66Z" fill="black"/>
<path d="M120 66H114V72H120V66Z" fill="black"/>
<path d="M126 66H120V72H126V66Z" fill="black"/>
<path d="M132 66H126V72H132V66Z" fill="black"/>
<path d="M138 66H132V72H138V66Z" fill="black"/>
<path d="M156 66H150V72H156V66Z" fill="black"/>
<path d="M174 66H168V72H174V66Z" fill="black"/>
<path d="M198 66H192V72H198V66Z" fill="black"/>
<path d="M204 66H198V72H204V66Z" fill="black"/>
<path d="M210 66H204V72H210V66Z" fill="black"/>
<path d="M18 72H12V78H18V72Z" fill="black"/>
<path d="M30 72H24V78H30V72Z" fill="black"/>
<path d="M36 72H30V78H36V72Z" fill="black"/>
<path d="M54 72H48V78H54V72Z" fill="black"/>
<path d="M60 72H54V78H60V72Z" fill="black"/>
<path d="M72 72H66V78H72V72Z" fill="black"/>
<path d="M84 72H78V78H84V72Z" fill="black"/>
<path d="M90 72H84V78H90V72Z" fill="black"/>
<path d="M108 72H102V78H108V72Z" fill="black"/>
<path d="M126 72H120V78H126V72Z" fill="black"/>
<path d="M138 72H132V78H138V72Z" fill="black"/>
<path d="M150 72H144V78H150V72Z" fill="black"/>
<path d="M174 72H168V78H174V72Z" fill="black"/>
<path d="M180 72H174V78H180V72Z" fill="black"/>
<path d="M192 72H186V78H192V72Z" fill="black"/>
<path d="M204 72H198V78H204V72Z" fill="black"/>
<path d="M30 78H24V84H30V78Z" fill="black"/>
<path d="M36 78H30V84H36V78Z" fill="black"/>
<path d="M48 78H42V84H48V78Z" fill="black"/>
<path d="M60 78H54V84H60V78Z" fill="black"/>
<path d="M72 78H66V84H72V78Z" fill="black"/>
<path d="M78 78H72V84H78V78Z" fill="black"/>
<path d="M84 78H78V84H84V78Z" fill="black"/>
<path d="M102 78H96V84H102V78Z" fill="black"/>
<path d="M108 78H102V84H108V78Z" fill="black"/>
<path d="M114 78H108V84H114V78Z" fill="black"/>
<path d="M132 78H126V84H132V78Z" fill="black"/>
<path d="M138 78H132V84H138V78Z" fill="black"/>
<path d="M144 78H138V84H144V78Z" fill="black"/>
<path d="M150 78H144V84H150V78Z" fill="black"/>
<path d="M156 78H150V84H156V78Z" fill="black"/>
<path d="M198 78H192V84H198V78Z" fill="black"/>
<path d="M36 84H30V90H36V84Z" fill="black"/>
<path d="M42 84H36V90H42V84Z" fill="black"/>
<path d="M54 84H48V90H54V84Z" fill="black"/>
<path d="M72 84H66V90H72V84Z" fill="black"/>
<path d="M84 84H78V90H84V84Z" fill="black"/>
<path d="M96 84H90V90H96V84Z" fill="black"/>
<path d="M102 84H96V90H102V84Z" fill="black"/>
<path d="M120 84H114V90H120V84Z" fill="black"/>
<path d="M132 84H126V90H132V84Z" fill="black"/>
<path d="M150 84H144V90H150V84Z" fill="black"/>
<path d="M156 84H150V90H156V84Z" fill="black"/>
<path d="M162 84H156V90H162V84Z" fill="black"/>
<path d="M168 84H162V90H168V84Z" fill="black"/>
<path d="M186 84H180V90H186V84Z" fill="black"/>
<path d="M192 84H186V90H192V84Z" fill="black"/>
<path d="M24 90H18V96H24V90Z" fill="black"/>
<path d="M30 90H24V96H30V90Z" fill="black"/>
<path d="M42 90H36V96H42V90Z" fill="black"/>
<path d="M48 90H42V96H48V90Z" fill="black"/>
<path d="M78 90H72V96H78V90Z" fill="black"/>
<path d="M90 90H84V96H90V90Z" fill="black"/>
<path d="M102 90H96V96H102V90Z" fill="black"/>
<path d="M114 90H108V96H114V90Z" fill="black"/>
<path d="M126 90H120V96H126V90Z" fill="black"/>
<path d="M132 90H126V96H132V90Z" fill="black"/>
<path d="M144 90H138V96H144V90Z" fill="black"/>
<path d="M156 90H150V96H156V90Z" fill="black"/>
<path d="M174 90H168V96H174V90Z" fill="black"/>
<path d="M204 90H198V96H204V90Z" fill="black"/>
<path d="M210 90H204V96H210V90Z" fill="black"/>
<path d="M18 96H12V102H18V96Z" fill="black"/>
<path d="M24 96H18V102H24V96Z" fill="black"/>
<path d="M36 96H30V102H36V96Z" fill="black"/>
<path d="M54 96H48V102H54V96Z" fill="black"/>
<path d="M60 96H54V102H60V96Z" fill="black"/>
<path d="M66 96H60V102H66V96Z" fill="black"/>
<path d="M72 96H66V102H72V96Z" fill="black"/>
<path d="M78 96H72V102H78V96Z" fill="black"/>
<path d="M108 96H102V102H108V96Z" fill="black"/>
<path d="M114 96H108V102H114V96Z" fill="black"/>
<path d="M120 96H114V102H120V96Z" fill="black"/>
<path d="M126 96H120V102H126V96Z" fill="black"/>
<path d="M138 96H132V102H138V96Z" fill="black"/>
<path d="M204 96H198V102H204V96Z" fill="black"/>
<path d="M18 102H12V108H18V102Z" fill="black"/>
<path d="M24 102H18V108H24V102Z" fill="black"/>
<path d="M30 102H24V108H30V102Z" fill="black"/>
<path d="M60 102H54V108H60V102Z" fill="black"/>
<path d="M90 102H84V108H90V102Z" fill="black"/>
<path d="M108 102H102V108H108V102Z" fill="black"/>
<path d="M138 102H132V108H138V102Z" fill="black"/>
<path d="M144 102H138V108H144V102Z" fill="black"/>
<path d="M150 102H144V108H150V102Z" fill="black"/>
<path d="M156 102H150V108H156V102Z" fill="black"/>
<path d="M162 102H156V108H162V102Z" fill="black"/>
<path d="M168 102H162V108H168V102Z" fill="black"/>
<path d="M180 102H174V108H180V102Z" fill="black"/>
<path d="M198 102H192V108H198V102Z" fill="black"/>
<path d="M24 108H18V114H24V108Z" fill="black"/>
<path d="M30 108H24V114H30V108Z" fill="black"/>
<path d="M36 108H30V114H36V108Z" fill="black"/>
<path d="M42 108H36V114H42V108Z" fill="black"/>
<path d="M54 108H48V114H54V108Z" fill="black"/>
<path d="M72 108H66V114H72V108Z" fill="black"/>
<path d="M90 108H84V114H90V108Z" fill="black"/>
<path d="M96 108H90V114H96V108Z" fill="black"/>
<path d="M102 108H96V114H102V108Z" fill="black"/>
<path d="M114 108H108V114H114V108Z" fill="black"/>
<path d="M120 108H114V114H120V108Z" fill="black"/>
<path d="M150 108H144V114H150V108Z" fill="black"/>
<path d="M162 108H156V114H162V108Z" fill="black"/>
<path d="M168 108H162V114H168V108Z" fill="black"/>
<path d="M180 108H174V114H180V108Z" fill="black"/>
<path d="M186 108H180V114H186V108Z" fill="black"/>
<path d="M204 108H198V114H204V108Z" fill="black"/>
<path d="M24 114H18V120H24V114Z" fill="black"/>
<path d="M102 114H96V120H102V114Z" fill="black"/>
<path d="M114 114H108V120H114V114Z" fill="black"/>
<path d="M126 114H120V120H126V114Z" fill="black"/>
<path d="M132 114H126V120H132V114Z" fill="black"/>
<path d="M138 114H132V120H138V114Z" fill="black"/>
<path d="M144 114H138V120H144V114Z" fill="black"/>
<path d="M156 114H150V120H156V114Z" fill="black"/>
<path d="M168 114H162V120H168V114Z" fill="black"/>
<path d="M174 114H168V120H174V114Z" fill="black"/>
<path d="M192 114H186V120H192V114Z" fill="black"/>
<path d="M204 114H198V120H204V114Z" fill="black"/>
<path d="M210 114H204V120H210V114Z" fill="black"/>
<path d="M18 120H12V126H18V120Z" fill="black"/>
<path d="M36 120H30V126H36V120Z" fill="black"/>
<path d="M54 120H48V126H54V120Z" fill="black"/>
<path d="M66 120H60V126H66V120Z" fill="black"/>
<path d="M78 120H72V126H78V120Z" fill="black"/>
<path d="M84 120H78V126H84V120Z" fill="black"/>
<path d="M90 120H84V126H90V120Z" fill="black"/>
<path d="M108 120H102V126H108V120Z" fill="black"/>
<path d="M114 120H108V126H114V120Z" fill="black"/>
<path d="M144 120H138V126H144V120Z" fill="black"/>
<path d="M162 120H156V126H162V120Z" fill="black"/>
<path d="M174 120H168V126H174V120Z" fill="black"/>
<path d="M186 120H180V126H186V120Z" fill="black"/>
<path d="M192 120H186V126H192V120Z" fill="black"/>
<path d="M204 120H198V126H204V120Z" fill="black"/>
<path d="M18 126H12V132H18V126Z" fill="black"/>
<path d="M24 126H18V132H24V126Z" fill="black"/>
<path d="M30 126H24V132H30V126Z" fill="black"/>
<path d="M36 126H30V132H36V126Z" fill="black"/>
<path d="M48 126H42V132H48V126Z" fill="black"/>
<path d="M66 126H60V132H66V126Z" fill="black"/>
<path d="M84 126H78V132H84V126Z" fill="black"/>
<path d="M108 126H102V132H108V126Z" fill="black"/>
<path d="M132 126H126V132H132V126Z" fill="black"/>
<path d="M138 126H132V132H138V126Z" fill="black"/>
<path d="M144 126H138V132H144V126Z" fill="black"/>
<path d="M150 126H144V132H150V126Z" fill="black"/>
<path d="M156 126H150V132H156V126Z" fill="black"/>
<path d="M168 126H162V132H168V126Z" fill="black"/>
<path d="M180 126H174V132H180V126Z" fill="black"/>
<path d="M198 126H192V132H198V126Z" fill="black"/>
<path d="M30 132H24V138H30V132Z" fill="black"/>
<path d="M42 132H36V138H42V132Z" fill="black"/>
<path d="M54 132H48V138H54V132Z" fill="black"/>
<path d="M60 132H54V138H60V132Z" fill="black"/>
<path d="M78 132H72V138H78V132Z" fill="black"/>
<path d="M84 132H78V138H84V132Z" fill="black"/>
<path d="M108 132H102V138H108V132Z" fill="black"/>
<path d="M120 132H114V138H120V132Z" fill="black"/>
<path d="M150 132H144V138H150V132Z" fill="black"/>
<path d="M156 132H150V138H156V132Z" fill="black"/>
<path d="M162 132H156V138H162V132Z" fill="black"/>
<path d="M168 132H162V138H168V132Z" fill="black"/>
<path d="M180 132H174V138H180V132Z" fill="black"/>
<path d="M186 132H180V138H186V132Z" fill="black"/>
<path d="M204 132H198V138H204V132Z" fill="black"/>
<path d="M18 138H12V144H18V138Z" fill="black"/>
<path d="M24 138H18V144H24V138Z" fill="black"/>
<path d="M30 138H24V144H30V138Z" fill="black"/>
<path d="M36 138H30V144H36V138Z" fill="black"/>
<path d="M42 138H36V144H42V138Z" fill="black"/>
<path d="M72 138H66V144H72V138Z" fill="black"/>
<path d="M78 138H72V144H78V138Z" fill="black"/>
<path d="M90 138H84V144H90V138Z" fill="black"/>
<path d="M96 138H90V144H96V138Z" fill="black"/>
<path d="M114 138H108V144H114V138Z" fill="black"/>
<path d="M132 138H126V144H132V138Z" fill="black"/>
<path d="M138 138H132V144H138V138Z" fill="black"/>
<path d="M144 138H138V144H144V138Z" fill="black"/>
<path d="M150 138H144V144H150V138Z" fill="black"/>
<path d="M156 138H150V144H156V138Z" fill="black"/>
<path d="M162 138H156V144H162V138Z" fill="black"/>
<path d="M174 138H168V144H174V138Z" fill="black"/>
<path d="M192 138H186V144H192V138Z" fill="black"/>
<path d="M204 138H198V144H204V138Z" fill="black"/>
<path d="M210 138H204V144H210V138Z" fill="black"/>
<path d="M18 144H12V150H18V144Z" fill="black"/>
<path d="M30 144H24V150H30V144Z" fill="black"/>
<path d="M36 144H30V150H36V144Z" fill="black"/>
<path d="M54 144H48V150H54V144Z" fill="black"/>
<path d="M66 144H60V150H66V144Z" fill="black"/>
<path d="M96 144H90V150H96V144Z" fill="black"/>
<path d="M102 144H96V150H102V144Z" fill="black"/>
<path d="M108 144H102V150H108V144Z" fill="black"/>
<path d="M120 144H114V150H120V144Z" fill="black"/>
<path d="M126 144H120V150H126V144Z" fill="black"/>
<path d="M138 144H132V150H138V144Z" fill="black"/>
<path d="M144 144H138V150H144V144Z" fill="black"/>
<path d="M150 144H144V150H150V144Z" fill="black"/>
<path d="M168 144H162V150H168V144Z" fill="black"/>
<path d="M174 144H168V150H174V144Z" fill="black"/>
<path d="M180 144H174V150H180V144Z" fill="black"/>
<path d="M186 144H180V150H186V144Z" fill="black"/>
<path d="M192 144H186V150H192V144Z" fill="black"/>
<path d="M204 144H198V150H204V144Z" fill="black"/>
<path d="M18 150H12V156H18V150Z" fill="black"/>
<path d="M30 150H24V156H30V150Z" fill="black"/>
<path d="M36 150H30V156H36V150Z" fill="black"/>
<path d="M42 150H36V156H42V150Z" fill="black"/>
<path d="M48 150H42V156H48V150Z" fill="black"/>
<path d="M72 150H66V156H72V150Z" fill="black"/>
<path d="M78 150H72V156H78V150Z" fill="black"/>
<path d="M90 150H84V156H90V150Z" fill="black"/>
<path d="M96 150H90V156H96V150Z" fill="black"/>
<path d="M108 150H102V156H108V150Z" fill="black"/>
<path d="M144 150H138V156H144V150Z" fill="black"/>
<path d="M186 150H180V156H186V150Z" fill="black"/>
<path d="M192 150H186V156H192V150Z" fill="black"/>
<path d="M198 150H192V156H198V150Z" fill="black"/>
<path d="M18 156H12V162H18V156Z" fill="black"/>
<path d="M30 156H24V162H30V156Z" fill="black"/>
<path d="M36 156H30V162H36V156Z" fill="black"/>
<path d="M54 156H48V162H54V156Z" fill="black"/>
<path d="M66 156H60V162H66V156Z" fill="black"/>
<path d="M72 156H66V162H72V156Z" fill="black"/>
<path d="M78 156H72V162H78V156Z" fill="black"/>
<path d="M90 156H84V162H90V156Z" fill="black"/>
<path d="M102 156H96V162H102V156Z" fill="black"/>
<path d="M120 156H114V162H120V156Z" fill="black"/>
<path d="M126 156H120V162H126V156Z" fill="black"/>
<path d="M132 156H126V162H132V156Z" fill="black"/>
<path d="M150 156H144V162H150V156Z" fill="black"/>
<path d="M162 156H156V162H162V156Z" fill="black"/>
<path d="M168 156H162V162H168V156Z" fill="black"/>
<path d="M174 156H168V162H174V156Z" fill="black"/>
<path d="M180 156H174V162H180V156Z" fill="black"/>
<path d="M186 156H180V162H186V156Z" fill="black"/>
<path d="M192 156H186V162H192V156Z" fill="black"/>
<path d="M210 156H204V162H210V156Z" fill="black"/>
<path d="M66 162H60V168H66V162Z" fill="black"/>
<path d="M72 162H66V168H72V162Z" fill="black"/>
<path d="M78 162H72V168H78V162Z" fill="black"/>
<path d="M114 162H108V168H114V162Z" fill="black"/>
<path d="M120 162H114V168H120V162Z" fill="black"/>
<path d="M126 162H120V168H126V162Z" fill="black"/>
<path d="M132 162H126V168H132V162Z" fill="black"/>
<path d="M138 162H132V168H138V162Z" fill="black"/>
<path d="M162 162H156V168H162V162Z" fill="black"/>
<path d="M186 162H180V168H186V162Z" fill="black"/>
<path d="M192 162H186V168H192V162Z" fill="black"/>
<path d="M198 162H192V168H198V162Z" fill="black"/>
<path d="M210 162H204V168H210V162Z" fill="black"/>
<path d="M18 168H12V174H18V168Z" fill="black"/>
<path d="M24 168H18V174H24V168Z" fill="black"/>
<path d="M30 168H24V174H30V168Z" fill="black"/>
<path d="M36 168H30V174H36V168Z" fill="black"/>
<path d="M42 168H36V174H42V168Z" fill="black"/>
<path d="M48 168H42V174H48V168Z" fill="black"/>
<path d="M54 168H48V174H54V168Z" fill="black"/>
<path d="M66 168H60V174H66V168Z" fill="black"/>
<path d="M78 168H72V174H78V168Z" fill="black"/>
<path d="M84 168H78V174H84V168Z" fill="black"/>
<path d="M90 168H84V174H90V168Z" fill="black"/>
<path d="M108 168H102V174H108V168Z" fill="black"/>
<path d="M120 168H114V174H120V168Z" fill="black"/>
<path d="M144 168H138V174H144V168Z" fill="black"/>
<path d="M156 168H150V174H156V168Z" fill="black"/>
<path d="M162 168H156V174H162V168Z" fill="black"/>
<path d="M174 168H168V174H174V168Z" fill="black"/>
<path d="M186 168H180V174H186V168Z" fill="black"/>
<path d="M192 168H186V174H192V168Z" fill="black"/>
<path d="M204 168H198V174H204V168Z" fill="black"/>
<path d="M18 174H12V180H18V174Z" fill="black"/>
<path d="M54 174H48V180H54V174Z" fill="black"/>
<path d="M78 174H72V180H78V174Z" fill="black"/>
<path d="M84 174H78V180H84V174Z" fill="black"/>
<path d="M102 174H96V180H102V174Z" fill="black"/>
<path d="M108 174H102V180H108V174Z" fill="black"/>
<path d="M114 174H108V180H114V174Z" fill="black"/>
<path d="M138 174H132V180H138V174Z" fill="black"/>
<path d="M144 174H138V180H144V174Z" fill="black"/>
<path d="M156 174H150V180H156V174Z" fill="black"/>
<path d="M162 174H156V180H162V174Z" fill="black"/>
<path d="M186 174H180V180H186V174Z" fill="black"/>
<path d="M192 174H186V180H192V174Z" fill="black"/>
<path d="M198 174H192V180H198V174Z" fill="black"/>
<path d="M18 180H12V186H18V180Z" fill="black"/>
<path d="M30 180H24V186H30V180Z" fill="black"/>
<path d="M36 180H30V186H36V180Z" fill="black"/>
<path d="M42 180H36V186H42V180Z" fill="black"/>
<path d="M54 180H48V186H54V180Z" fill="black"/>
<path d="M66 180H60V186H66V180Z" fill="black"/>
<path d="M72 180H66V186H72V180Z" fill="black"/>
<path d="M84 180H78V186H84V180Z" fill="black"/>
<path d="M108 180H102V186H108V180Z" fill="black"/>
<path d="M114 180H108V186H114V180Z" fill="black"/>
<path d="M120 180H114V186H120V180Z" fill="black"/>
<path d="M132 180H126V186H132V180Z" fill="black"/>
<path d="M150 180H144V186H150V180Z" fill="black"/>
<path d="M162 180H156V186H162V180Z" fill="black"/>
<path d="M168 180H162V186H168V180Z" fill="black"/>
<path d="M174 180H168V186H174V180Z" fill="black"/>
<path d="M180 180H174V186H180V180Z" fill="black"/>
<path d="M186 180H180V186H186V180Z" fill="black"/>
<path d="M192 180H186V186H192V180Z" fill="black"/>
<path d="M18 186H12V192H18V186Z" fill="black"/>
<path d="M30 186H24V192H30V186Z" fill="black"/>
<path d="M36 186H30V192H36V186Z" fill="black"/>
<path d="M42 186H36V192H42V186Z" fill="black"/>
<path d="M54 186H48V192H54V186Z" fill="black"/>
<path d="M66 186H60V192H66V186Z" fill="black"/>
<path d="M72 186H66V192H72V186Z" fill="black"/>
<path d="M90 186H84V192H90V186Z" fill="black"/>
<path d="M96 186H90V192H96V186Z" fill="black"/>
<path d="M102 186H96V192H102V186Z" fill="black"/>
<path d="M114 186H108V192H114V186Z" fill="black"/>
<path d="M126 186H120V192H126V186Z" fill="black"/>
<path d="M132 186H126V192H132V186Z" fill="black"/>
<path d="M138 186H132V192H138V186Z" fill="black"/>
<path d="M144 186H138V192H144V186Z" fill="black"/>
<path d="M168 186H162V192H168V186Z" fill="black"/>
<path d="M180 186H174V192H180V186Z" fill="black"/>
<path d="M186 186H180V192H186V186Z" fill="black"/>
<path d="M192 186H186V192H192V186Z" fill="black"/>
<path d="M198 186H192V192H198V186Z" fill="black"/>
<path d="M18 192H12V198H18V192Z" fill="black"/>
<path d="M30 192H24V198H30V192Z" fill="black"/>
<path d="M36 192H30V198H36V192Z" fill="black"/>
<path d="M42 192H36V198H42V192Z" fill="black"/>
<path d="M54 192H48V198H54V192Z" fill="black"/>
<path d="M66 192H60V198H66V192Z" fill="black"/>
<path d="M78 192H72V198H78V192Z" fill="black"/>
<path d="M96 192H90V198H96V192Z" fill="black"/>
<path d="M102 192H96V198H102V192Z" fill="black"/>
<path d="M108 192H102V198H108V192Z" fill="black"/>
<path d="M114 192H108V198H114V192Z" fill="black"/>
<path d="M120 192H114V198H120V192Z" fill="black"/>
<path d="M126 192H120V198H126V192Z" fill="black"/>
<path d="M138 192H132V198H138V192Z" fill="black"/>
<path d="M144 192H138V198H144V192Z" fill="black"/>
<path d="M156 192H150V198H156V192Z" fill="black"/>
<path d="M162 192H156V198H162V192Z" fill="black"/>
<path d="M174 192H168V198H174V192Z" fill="black"/>
<path d="M180 192H174V198H180V192Z" fill="black"/>
<path d="M192 192H186V198H192V192Z" fill="black"/>
<path d="M204 192H198V198H204V192Z" fill="black"/>
<path d="M18 198H12V204H18V198Z" fill="black"/>
<path d="M54 198H48V204H54V198Z" fill="black"/>
<path d="M66 198H60V204H66V198Z" fill="black"/>
<path d="M72 198H66V204H72V198Z" fill="black"/>
<path d="M90 198H84V204H90V198Z" fill="black"/>
<path d="M96 198H90V204H96V198Z" fill="black"/>
<path d="M108 198H102V204H108V198Z" fill="black"/>
<path d="M144 198H138V204H144V198Z" fill="black"/>
<path d="M150 198H144V204H150V198Z" fill="black"/>
<path d="M174 198H168V204H174V198Z" fill="black"/>
<path d="M186 198H180V204H186V198Z" fill="black"/>
<path d="M192 198H186V204H192V198Z" fill="black"/>
<path d="M198 198H192V204H198V198Z" fill="black"/>
<path d="M18 204H12V210H18V204Z" fill="black"/>
<path d="M24 204H18V210H24V204Z" fill="black"/>
<path d="M30 204H24V210H30V204Z" fill="black"/>
<path d="M36 204H30V210H36V204Z" fill="black"/>
<path d="M42 204H36V210H42V204Z" fill="black"/>
<path d="M48 204H42V210H48V204Z" fill="black"/>
<path d="M54 204H48V210H54V204Z" fill="black"/>
<path d="M66 204H60V210H66V204Z" fill="black"/>
<path d="M78 204H72V210H78V204Z" fill="black"/>
<path d="M90 204H84V210H90V204Z" fill="black"/>
<path d="M102 204H96V210H102V204Z" fill="black"/>
<path d="M108 204H102V210H108V204Z" fill="black"/>
<path d="M120 204H114V210H120V204Z" fill="black"/>
<path d="M132 204H126V210H132V204Z" fill="black"/>
<path d="M138 204H132V210H138V204Z" fill="black"/>
<path d="M150 204H144V210H150V204Z" fill="black"/>
<path d="M156 204H150V210H156V204Z" fill="black"/>
<path d="M162 204H156V210H162V204Z" fill="black"/>
<path d="M168 204H162V210H168V204Z" fill="black"/>
<path d="M192 204H186V210H192V204Z" fill="black"/>
<path d="M204 204H198V210H204V204Z" fill="black"/>
</g>
<defs>
<clipPath id="clip0_37_4884">
<rect width="222" height="222" fill="white"/>
</clipPath>
</defs>
</svg>
